<?xml version="1.0" encoding="utf-8"?>
<!-- Generator: Adobe Illustrator 19.2.1, SVG Export Plug-In . SVG Version: 6.00 Build 0)  -->
<svg version="1.1" id="layer" xmlns="http://www.w3.org/2000/svg" xmlns:xlink="http://www.w3.org/1999/xlink" x="0px" y="0px"
	 viewBox="0 0 652 652" style="enable-background:new 0 0 652 652;" xml:space="preserve">
<style type="text/css">
	.st0{fill:#0E955E;}
</style>
<path class="st0" d="M108.9,316.3H69.6c-1.1,0-1.6,0.7-1.6,1.9v8c0,0.9,0.4,1.4,1.5,1.4h23v32.3c-4.3,0.7-4,1.5-14.2,1.5
	c-31.6,0-40-21.9-40-41.1c0-24.5,13.3-36.3,35.1-36.3c12.8,0,29,4.6,29.6,4.6c0.5,0,1.1-0.4,1.2-1c0,0,2-8.9,2-9.9
	c0-0.6-0.1-1.5-1.4-2c0,0-11.8-4-28.1-4c-37.3,0-55.8,23.7-55.8,52.7c0,31.6,19.6,50.2,53.3,50.2c15.3,0,34.8-5.3,34.8-5.3
	c0.6-0.1,1.4-1,1.4-2v-48.8C110.4,317.4,109.9,316.3,108.9,316.3"/>
<path class="st0" d="M184.6,361.2h-44.5v-34.3h40.6c1,0,1.4-1.2,1.4-2.2v-7.3c0-0.9-0.2-1.6-1.9-1.6h-40.1v-31.6h42.3
	c1.1,0,1.6-0.4,1.6-1.1v-8.5c0-0.7-0.6-1.2-1.5-1.2h-58.3c-1.4,0-1.9,0.9-1.9,2.2v95.3c0,1.2,0.4,1.9,1.9,1.9h60.7
	c1.1,0,1.6-1,1.6-1.9v-8.3C186.5,361.8,185.8,361.2,184.6,361.2"/>
<path class="st0" d="M283.7,273.3h-10.4c-1.4,0-1.7,0.7-1.7,2.2v58.8c0,6,0.6,10.8,0.6,10.8l-60.7-71.8h-12.1c-1.6,0-2,1-2,1.6v96.2
	c0,0.9,0.5,1.6,1.5,1.6h10.4c0.7,0,1.6-1,1.6-1.7v-62.8c0-6.5-0.2-10.7-0.2-10.7l61.5,73.7c1,1.1,1.7,1.5,2.9,1.5h8.8
	c0.7,0,1.4-0.9,1.4-2v-95.2C285.3,274.2,284.8,273.3,283.7,273.3"/>
<path class="st0" d="M360.4,361.2h-44.5v-34.3h40.6c1,0,1.4-1.2,1.4-2.2v-7.3c0-0.9-0.3-1.6-1.9-1.6h-40.1v-31.6h42.3
	c1.1,0,1.6-0.4,1.6-1.1v-8.5c0-0.7-0.6-1.2-1.5-1.2H300c-1.4,0-1.9,0.9-1.9,2.2v95.3c0,1.2,0.4,1.9,1.9,1.9h60.7
	c1.1,0,1.6-1,1.6-1.9v-8.3C362.3,361.8,361.7,361.2,360.4,361.2"/>
<path class="st0" d="M430.1,361.2h-39v-85.9c0-0.6,0-2-1-2h-15.7c-0.9,0-1.1,0.9-1.1,1.7V371c0,1.1,0.9,1.7,1.7,1.7h54.8
	c0.6,0,1.4-0.4,1.4-1.5v-9C431.2,361.8,430.7,361.2,430.1,361.2"/>
<path class="st0" d="M502.2,361.2h-44.5v-34.3h40.6c1,0,1.4-1.2,1.4-2.2v-7.3c0-0.9-0.2-1.6-1.9-1.6h-40.1v-31.6h42.3
	c1.1,0,1.6-0.4,1.6-1.1v-8.5c0-0.7-0.6-1.2-1.5-1.2h-58.3c-1.4,0-1.9,0.9-1.9,2.2v95.3c0,1.2,0.4,1.9,1.9,1.9h60.7
	c1.1,0,1.6-1,1.6-1.9v-8.3C504,361.8,503.4,361.2,502.2,361.2"/>
<path class="st0" d="M585.6,357.4c-0.6,0-10.7,4.1-22.5,4.1c-14,0-37.9-7.7-37.9-41.3c0-14.4,5.1-36.3,34.9-36.3
	c9.3,0,24.4,4,25.2,4c0.5,0,0.7-0.1,1-0.7c0,0,2.5-9.9,2.5-10.6c0-0.6-0.6-1.2-1.2-1.5c0,0-9.3-3.6-26.2-3.6
	c-26.5,0-53.3,17-53.3,52.8c0,36.7,26.4,50.1,50.3,50.1c16.9,0,29.3-4.5,29.3-4.5c0.7-0.2,1.4-0.9,1.4-1.4c0-1-2.2-10.4-2.2-10.4
	C586.8,357.7,586.3,357.4,585.6,357.4"/>
<path class="st0" d="M619.9,279.2c-0.6-1.6-1.5-2.9-2.7-4c-1.1-1.1-2.5-2-4.1-2.7c-1.6-0.6-3.3-1-5.2-1c-1.8,0-3.5,0.3-5.1,1
	c-1.6,0.7-2.9,1.6-4.1,2.7c-1.2,1.2-2.1,2.5-2.8,4.1c-0.7,1.6-1,3.2-1,5.1c0,1.9,0.3,3.6,1,5.2c0.6,1.6,1.5,2.9,2.7,4
	c1.1,1.1,2.5,2,4.1,2.7c1.6,0.6,3.3,1,5.2,1c1.8,0,3.5-0.3,5.1-1c1.6-0.7,3-1.6,4.1-2.7c1.2-1.2,2.1-2.5,2.8-4.1
	c0.7-1.6,1-3.3,1-5.1C620.9,282.5,620.6,280.8,619.9,279.2 M617.2,288.4c-0.5,1.2-1.1,2.3-2,3.2c-0.9,0.9-1.9,1.6-3.1,2.2
	c-1.2,0.5-2.6,0.8-4.1,0.8c-1.4,0-2.7-0.3-3.9-0.7c-1.2-0.5-2.3-1.2-3.1-2.1c-0.9-0.9-1.6-2-2.1-3.3c-0.5-1.3-0.7-2.7-0.7-4.2
	c0-1.4,0.2-2.7,0.7-3.9c0.5-1.2,1.2-2.3,2-3.2c0.9-0.9,1.9-1.6,3.2-2.2c1.2-0.5,2.6-0.8,4.1-0.8c1.4,0,2.7,0.2,3.9,0.7
	c1.2,0.5,2.3,1.2,3.1,2.1c0.9,0.9,1.6,2,2.1,3.3c0.5,1.3,0.7,2.7,0.7,4.3C617.9,285.9,617.7,287.2,617.2,288.4"/>
<path class="st0" d="M611.8,284.9c1.5-0.7,2.2-1.8,2.2-3.3c0-1.1-0.4-2.1-1.2-2.8c-0.8-0.7-2.1-1.1-3.7-1.1H603v13h2.8v-5.2h3
	l2.1,5.2h3l-2.4-5.7L611.8,284.9z M611,281.5c0,1.2-0.8,1.8-2.4,1.8h-2.8v-3.5h3C610.3,279.7,611,280.3,611,281.5"/>
</svg>
