<?xml version="1.0" encoding="UTF-8" standalone="no"?>
<!-- Created with Inkscape (http://www.inkscape.org/) -->

<svg
   xmlns:dc="http://purl.org/dc/elements/1.1/"
   xmlns:cc="http://creativecommons.org/ns#"
   xmlns:rdf="http://www.w3.org/1999/02/22-rdf-syntax-ns#"
   xmlns:svg="http://www.w3.org/2000/svg"
   xmlns="http://www.w3.org/2000/svg"
   xmlns:sodipodi="http://sodipodi.sourceforge.net/DTD/sodipodi-0.dtd"
   xmlns:inkscape="http://www.inkscape.org/namespaces/inkscape"
   width="158.75mm"
   height="27.278542mm"
   viewBox="0 0 158.75 27.278542"
   version="1.1"
   id="svg8"
   inkscape:version="0.92.4 (5da689c313, 2019-01-14)"
   sodipodi:docname="drawing.svg">
  <defs
     id="defs2" />
  <sodipodi:namedview
     id="base"
     pagecolor="#ffffff"
     bordercolor="#666666"
     borderopacity="1.0"
     inkscape:pageopacity="0.0"
     inkscape:pageshadow="2"
     inkscape:zoom="0.98994949"
     inkscape:cx="118.27319"
     inkscape:cy="-40.627952"
     inkscape:document-units="mm"
     inkscape:current-layer="layer1"
     showgrid="false"
     inkscape:window-width="2560"
     inkscape:window-height="1346"
     inkscape:window-x="3412"
     inkscape:window-y="3229"
     inkscape:window-maximized="1" />
  <metadata
     id="metadata5">
    <rdf:RDF>
      <cc:Work
         rdf:about="">
        <dc:format>image/svg+xml</dc:format>
        <dc:type
           rdf:resource="http://purl.org/dc/dcmitype/StillImage" />
        <dc:title></dc:title>
      </cc:Work>
    </rdf:RDF>
  </metadata>
  <g
     inkscape:label="Layer 1"
     inkscape:groupmode="layer"
     id="layer1"
     transform="translate(-27.527413,-61.782837)">
    <g
       id="g852"
       transform="matrix(0.26458333,0,0,0.26458333,21.997621,-10.051537)">
      <path
         id="path817"
         d="M 108.9,316.3 H 69.6 c -1.1,0 -1.6,0.7 -1.6,1.9 v 8 c 0,0.9 0.4,1.4 1.5,1.4 h 23 v 32.3 c -4.3,0.7 -4,1.5 -14.2,1.5 -31.6,0 -40,-21.9 -40,-41.1 0,-24.5 13.3,-36.3 35.1,-36.3 12.8,0 29,4.6 29.6,4.6 0.5,0 1.1,-0.4 1.2,-1 0,0 2,-8.9 2,-9.9 0,-0.6 -0.1,-1.5 -1.4,-2 0,0 -11.8,-4 -28.1,-4 -37.3,0 -55.8,23.7 -55.8,52.7 0,31.6 19.6,50.2 53.3,50.2 15.3,0 34.8,-5.3 34.8,-5.3 0.6,-0.1 1.4,-1 1.4,-2 v -48.8 c 0,-1.1 -0.5,-2.2 -1.5,-2.2"
         class="st0"
         inkscape:connector-curvature="0"
         style="fill:#0e955e" />
      <path
         id="path819"
         d="m 184.6,361.2 h -44.5 v -34.3 h 40.6 c 1,0 1.4,-1.2 1.4,-2.2 v -7.3 c 0,-0.9 -0.2,-1.6 -1.9,-1.6 h -40.1 v -31.6 h 42.3 c 1.1,0 1.6,-0.4 1.6,-1.1 v -8.5 c 0,-0.7 -0.6,-1.2 -1.5,-1.2 h -58.3 c -1.4,0 -1.9,0.9 -1.9,2.2 v 95.3 c 0,1.2 0.4,1.9 1.9,1.9 h 60.7 c 1.1,0 1.6,-1 1.6,-1.9 v -8.3 c 0,-0.8 -0.7,-1.4 -1.9,-1.4"
         class="st0"
         inkscape:connector-curvature="0"
         style="fill:#0e955e" />
      <path
         id="path821"
         d="m 283.7,273.3 h -10.4 c -1.4,0 -1.7,0.7 -1.7,2.2 v 58.8 c 0,6 0.6,10.8 0.6,10.8 l -60.7,-71.8 h -12.1 c -1.6,0 -2,1 -2,1.6 v 96.2 c 0,0.9 0.5,1.6 1.5,1.6 h 10.4 c 0.7,0 1.6,-1 1.6,-1.7 v -62.8 c 0,-6.5 -0.2,-10.7 -0.2,-10.7 l 61.5,73.7 c 1,1.1 1.7,1.5 2.9,1.5 h 8.8 c 0.7,0 1.4,-0.9 1.4,-2 v -95.2 c 0,-1.3 -0.5,-2.2 -1.6,-2.2"
         class="st0"
         inkscape:connector-curvature="0"
         style="fill:#0e955e" />
      <path
         id="path823"
         d="m 360.4,361.2 h -44.5 v -34.3 h 40.6 c 1,0 1.4,-1.2 1.4,-2.2 v -7.3 c 0,-0.9 -0.3,-1.6 -1.9,-1.6 h -40.1 v -31.6 h 42.3 c 1.1,0 1.6,-0.4 1.6,-1.1 v -8.5 c 0,-0.7 -0.6,-1.2 -1.5,-1.2 H 300 c -1.4,0 -1.9,0.9 -1.9,2.2 v 95.3 c 0,1.2 0.4,1.9 1.9,1.9 h 60.7 c 1.1,0 1.6,-1 1.6,-1.9 v -8.3 c 0,-0.8 -0.6,-1.4 -1.9,-1.4"
         class="st0"
         inkscape:connector-curvature="0"
         style="fill:#0e955e" />
      <path
         id="path825"
         d="m 430.1,361.2 h -39 v -85.9 c 0,-0.6 0,-2 -1,-2 h -15.7 c -0.9,0 -1.1,0.9 -1.1,1.7 v 96 c 0,1.1 0.9,1.7 1.7,1.7 h 54.8 c 0.6,0 1.4,-0.4 1.4,-1.5 v -9 c 0,-0.4 -0.5,-1 -1.1,-1"
         class="st0"
         inkscape:connector-curvature="0"
         style="fill:#0e955e" />
      <path
         id="path827"
         d="m 502.2,361.2 h -44.5 v -34.3 h 40.6 c 1,0 1.4,-1.2 1.4,-2.2 v -7.3 c 0,-0.9 -0.2,-1.6 -1.9,-1.6 H 457.7 V 284.2 H 500 c 1.1,0 1.6,-0.4 1.6,-1.1 v -8.5 c 0,-0.7 -0.6,-1.2 -1.5,-1.2 h -58.3 c -1.4,0 -1.9,0.9 -1.9,2.2 v 95.3 c 0,1.2 0.4,1.9 1.9,1.9 h 60.7 c 1.1,0 1.6,-1 1.6,-1.9 v -8.3 c -0.1,-0.8 -0.7,-1.4 -1.9,-1.4"
         class="st0"
         inkscape:connector-curvature="0"
         style="fill:#0e955e" />
      <path
         id="path829"
         d="m 585.6,357.4 c -0.6,0 -10.7,4.1 -22.5,4.1 -14,0 -37.9,-7.7 -37.9,-41.3 0,-14.4 5.1,-36.3 34.9,-36.3 9.3,0 24.4,4 25.2,4 0.5,0 0.7,-0.1 1,-0.7 0,0 2.5,-9.9 2.5,-10.6 0,-0.6 -0.6,-1.2 -1.2,-1.5 0,0 -9.3,-3.6 -26.2,-3.6 -26.5,0 -53.3,17 -53.3,52.8 0,36.7 26.4,50.1 50.3,50.1 16.9,0 29.3,-4.5 29.3,-4.5 0.7,-0.2 1.4,-0.9 1.4,-1.4 0,-1 -2.2,-10.4 -2.2,-10.4 -0.1,-0.4 -0.6,-0.7 -1.3,-0.7"
         class="st0"
         inkscape:connector-curvature="0"
         style="fill:#0e955e" />
      <path
         id="path831"
         d="m 619.9,279.2 c -0.6,-1.6 -1.5,-2.9 -2.7,-4 -1.1,-1.1 -2.5,-2 -4.1,-2.7 -1.6,-0.6 -3.3,-1 -5.2,-1 -1.8,0 -3.5,0.3 -5.1,1 -1.6,0.7 -2.9,1.6 -4.1,2.7 -1.2,1.2 -2.1,2.5 -2.8,4.1 -0.7,1.6 -1,3.2 -1,5.1 0,1.9 0.3,3.6 1,5.2 0.6,1.6 1.5,2.9 2.7,4 1.1,1.1 2.5,2 4.1,2.7 1.6,0.6 3.3,1 5.2,1 1.8,0 3.5,-0.3 5.1,-1 1.6,-0.7 3,-1.6 4.1,-2.7 1.2,-1.2 2.1,-2.5 2.8,-4.1 0.7,-1.6 1,-3.3 1,-5.1 0,-1.9 -0.3,-3.6 -1,-5.2 m -2.7,9.2 c -0.5,1.2 -1.1,2.3 -2,3.2 -0.9,0.9 -1.9,1.6 -3.1,2.2 -1.2,0.5 -2.6,0.8 -4.1,0.8 -1.4,0 -2.7,-0.3 -3.9,-0.7 -1.2,-0.5 -2.3,-1.2 -3.1,-2.1 -0.9,-0.9 -1.6,-2 -2.1,-3.3 -0.5,-1.3 -0.7,-2.7 -0.7,-4.2 0,-1.4 0.2,-2.7 0.7,-3.9 0.5,-1.2 1.2,-2.3 2,-3.2 0.9,-0.9 1.9,-1.6 3.2,-2.2 1.2,-0.5 2.6,-0.8 4.1,-0.8 1.4,0 2.7,0.2 3.9,0.7 1.2,0.5 2.3,1.2 3.1,2.1 0.9,0.9 1.6,2 2.1,3.3 0.5,1.3 0.7,2.7 0.7,4.3 -0.1,1.3 -0.3,2.6 -0.8,3.8"
         class="st0"
         inkscape:connector-curvature="0"
         style="fill:#0e955e" />
      <path
         id="path833"
         d="m 611.8,284.9 c 1.5,-0.7 2.2,-1.8 2.2,-3.3 0,-1.1 -0.4,-2.1 -1.2,-2.8 -0.8,-0.7 -2.1,-1.1 -3.7,-1.1 H 603 v 13 h 2.8 v -5.2 h 3 l 2.1,5.2 h 3 l -2.4,-5.7 z m -0.8,-3.4 c 0,1.2 -0.8,1.8 -2.4,1.8 h -2.8 v -3.5 h 3 c 1.5,-0.1 2.2,0.5 2.2,1.7"
         class="st0"
         inkscape:connector-curvature="0"
         style="fill:#0e955e" />
    </g>
  </g>
  <style
     id="style815"
     type="text/css">
	.st0{fill:#0E955E;}
</style>
</svg>
